<svg xmlns="http://www.w3.org/2000/svg" width="30.997" height="30.85" viewBox="0 0 66.063 65.75">
  <path id="Shape" class="cls-1" d="M240.6,312.38a4.655,4.655,0,0,1-3.81-1.276L223.458,297.7a28.567,28.567,0,0,1-15.879,4.47c-15.24,0-27.942-12.132-27.942-27.455a27.954,27.954,0,1,1,50.805,15.323L243.78,304.08a3.513,3.513,0,0,1,1.905,3.191,5.023,5.023,0,0,1-5.082,5.109h0Zm-33.024-55.546A17.41,17.41,0,0,0,189.8,274.711c0,9.578,7.62,17.238,17.781,17.238,9.528,0,17.784-7.66,17.784-17.238a17.8,17.8,0,0,0-17.784-17.877h0Z" transform="translate(-179.625 -246.625)"/>
</svg>
